<svg width="1260" height="361" xmlns="http://www.w3.org/2000/svg" xmlns:xlink="http://www.w3.org/1999/xlink" xml:space="preserve" overflow="hidden"><g transform="translate(-1126 -158)"><path d="M1128.78 160.374 1497.35 160.374 1497.35 242.393 1128.78 242.393Z" fill-rule="evenodd"/><path d="M1497.35 160.374 1673.13 160.374 1673.13 242.393 1497.35 242.393Z" fill-rule="evenodd"/><path d="M1673.13 160.374 2027.8 160.374 2027.8 242.393 1673.13 242.393Z" fill-rule="evenodd"/><path d="M2027.8 160.374 2380.93 160.374 2380.93 242.393 2027.8 242.393Z" fill-rule="evenodd"/><path d="M1128.78 242.393 1497.35 242.393 1497.35 324.412 1128.78 324.412Z" fill="#FFFFFF" fill-rule="evenodd"/><path d="M1497.35 242.393 1673.13 242.393 1673.13 324.412 1497.35 324.412Z" fill="#FFFFFF" fill-rule="evenodd"/><path d="M1673.13 242.393 2027.8 242.393 2027.8 324.412 1673.13 324.412Z" fill="#FFFFFF" fill-rule="evenodd"/><path d="M2027.8 242.393 2380.93 242.393 2380.93 324.412 2027.8 324.412Z" fill="#FFFFFF" fill-rule="evenodd"/><path d="M1128.78 324.412 1497.35 324.412 1497.35 406.431 1128.78 406.431Z" fill="#FFFFFF" fill-rule="evenodd"/><path d="M1497.35 324.412 1673.13 324.412 1673.13 406.431 1497.35 406.431Z" fill="#FFFFFF" fill-rule="evenodd"/><path d="M1673.13 324.412 2027.8 324.412 2027.8 406.431 1673.13 406.431Z" fill="#FFFFFF" fill-rule="evenodd"/><path d="M2027.8 324.412 2380.93 324.412 2380.93 406.431 2027.8 406.431Z" fill="#FFFFFF" fill-rule="evenodd"/><path d="M1128.78 406.431 1497.35 406.431 1497.35 488.449 1128.78 488.449Z" fill="#FFFFFF" fill-rule="evenodd"/><path d="M1497.35 406.431 1673.13 406.431 1673.13 488.449 1497.35 488.449Z" fill="#FFFFFF" fill-rule="evenodd"/><path d="M1673.13 406.431 2027.8 406.431 2027.8 488.449 1673.13 488.449Z" fill="#FFFFFF" fill-rule="evenodd"/><path d="M2027.8 406.431 2380.93 406.431 2380.93 488.449 2027.8 488.449Z" fill="#FFFFFF" fill-rule="evenodd"/><path d="M1126.49 242.393 2383.23 242.393" stroke="#000000" stroke-width="4.58333" stroke-linejoin="round" stroke-miterlimit="10" fill="none" fill-rule="evenodd"/><path d="M1126.49 324.412 2383.23 324.412" stroke="#000000" stroke-width="4.58333" stroke-linejoin="round" stroke-miterlimit="10" fill="none" fill-rule="evenodd"/><path d="M1126.49 406.431 2383.23 406.431" stroke="#000000" stroke-width="4.58333" stroke-linejoin="round" stroke-miterlimit="10" fill="none" fill-rule="evenodd"/><path d="M1128.78 158.082 1128.78 490.741" stroke="#000000" stroke-width="4.58333" stroke-linejoin="round" stroke-miterlimit="10" fill="none" fill-rule="evenodd"/><path d="M2380.93 158.082 2380.93 490.741" stroke="#000000" stroke-width="4.58333" stroke-linejoin="round" stroke-miterlimit="10" fill="none" fill-rule="evenodd"/><path d="M1126.49 160.374 2383.23 160.374" stroke="#000000" stroke-width="4.58333" stroke-linejoin="round" stroke-miterlimit="10" fill="none" fill-rule="evenodd"/><path d="M1126.49 488.449 2383.23 488.449" stroke="#000000" stroke-width="4.58333" stroke-linejoin="round" stroke-miterlimit="10" fill="none" fill-rule="evenodd"/><text fill="#FFFFFF" font-family="Aptos,Aptos_MSFontService,sans-serif" font-weight="700" font-size="50" transform="matrix(1 0 0 1 2058.88 228)">P(F</text><text fill="#FFFFFF" font-family="Aptos,Aptos_MSFontService,sans-serif" font-weight="700" font-size="50" transform="matrix(1 0 0 1 2131.07 228)">-</text><text fill="#FFFFFF" font-family="Aptos,Aptos_MSFontService,sans-serif" font-weight="700" font-size="50" transform="matrix(1 0 0 1 2148.26 228)">statistic)</text><text fill="#FFFFFF" font-family="Aptos,Aptos_MSFontService,sans-serif" font-weight="700" font-size="50" transform="matrix(1 0 0 1 1735.06 228)">F</text><text fill="#FFFFFF" font-family="Aptos,Aptos_MSFontService,sans-serif" font-weight="700" font-size="50" transform="matrix(1 0 0 1 1761.99 228)">-</text><text fill="#FFFFFF" font-family="Aptos,Aptos_MSFontService,sans-serif" font-weight="700" font-size="50" transform="matrix(1 0 0 1 1779.17 228)">statistic</text><text fill="#FFFFFF" font-family="Aptos,Aptos_MSFontService,sans-serif" font-weight="700" font-size="50" transform="matrix(1 0 0 1 1560.32 228)">R</text><text fill="#FFFFFF" font-family="Aptos,Aptos_MSFontService,sans-serif" font-weight="700" font-size="34" transform="matrix(1 0 0 1 1592.4 213)">2</text><text fill="#FFFFFF" font-family="Aptos,Aptos_MSFontService,sans-serif" font-weight="700" font-size="50" transform="matrix(1 0 0 1 1159.81 228)">Linear Model</text><text font-family="Aptos,Aptos_MSFontService,sans-serif" font-weight="400" font-size="50" transform="matrix(1 0 0 1 2143.35 310)">0.365</text><text font-family="Aptos,Aptos_MSFontService,sans-serif" font-weight="400" font-size="50" transform="matrix(1 0 0 1 1775.99 310)">0.8196</text><g><text font-family="Aptos,Aptos_MSFontService,sans-serif" font-weight="400" font-size="50" transform="matrix(1 0 0 1 1524.22 310)">0.000</text></g><text font-family="Aptos,Aptos_MSFontService,sans-serif" font-weight="700" font-size="50" transform="matrix(1 0 0 1 1297.31 310)">A</text><text font-family="Aptos,Aptos_MSFontService,sans-serif" font-weight="400" font-size="50" transform="matrix(1 0 0 1 2143.35 392)">0.484</text><text font-family="Aptos,Aptos_MSFontService,sans-serif" font-weight="400" font-size="50" transform="matrix(1 0 0 1 1775.99 392)">0.4893</text><g><text font-family="Aptos,Aptos_MSFontService,sans-serif" font-weight="400" font-size="50" transform="matrix(1 0 0 1 1524.22 392)">0.000</text></g><text font-family="Aptos,Aptos_MSFontService,sans-serif" font-weight="700" font-size="50" transform="matrix(1 0 0 1 1297.6 392)">B</text><text font-family="Aptos,Aptos_MSFontService,sans-serif" font-weight="400" font-size="50" transform="matrix(1 0 0 1 2143.35 474)">0.171</text><text font-family="Aptos,Aptos_MSFontService,sans-serif" font-weight="400" font-size="50" transform="matrix(1 0 0 1 1789.45 474)">1.875</text><g><text font-family="Aptos,Aptos_MSFontService,sans-serif" font-weight="400" font-size="50" transform="matrix(1 0 0 1 1524.22 474)">0.00</text></g><g><text font-family="Aptos,Aptos_MSFontService,sans-serif" font-weight="400" font-size="50" transform="matrix(1 0 0 1 1619.33 474)">1</text></g><text font-family="Aptos,Aptos_MSFontService,sans-serif" font-weight="700" font-size="50" transform="matrix(1 0 0 1 1295.3 474)">C</text></g></svg>