<svg width="1310" height="426" xmlns="http://www.w3.org/2000/svg" xmlns:xlink="http://www.w3.org/1999/xlink" xml:space="preserve" overflow="hidden"><g transform="translate(-1522 -1012)"><path d="M1525.09 1014.67 1910.57 1014.67 1910.57 1117.99 1525.09 1117.99Z" fill-rule="evenodd"/><path d="M1910.57 1014.67 2113.25 1014.67 2113.25 1117.99 1910.57 1117.99Z" fill-rule="evenodd"/><path d="M2113.25 1014.67 2439.37 1014.67 2439.37 1117.99 2113.25 1117.99Z" fill-rule="evenodd"/><path d="M2439.37 1014.67 2826.59 1014.67 2826.59 1117.99 2439.37 1117.99Z" fill-rule="evenodd"/><path d="M1525.09 1117.99 1910.57 1117.99 1910.57 1221.31 1525.09 1221.31Z" fill="#FFFFFF" fill-rule="evenodd"/><path d="M1910.57 1117.99 2113.25 1117.99 2113.25 1221.31 1910.57 1221.31Z" fill="#FFFFFF" fill-rule="evenodd"/><path d="M2113.25 1117.99 2439.37 1117.99 2439.37 1221.31 2113.25 1221.31Z" fill="#FFFFFF" fill-rule="evenodd"/><path d="M2439.37 1117.99 2826.59 1117.99 2826.59 1221.31 2439.37 1221.31Z" fill="#FFFFFF" fill-rule="evenodd"/><path d="M1525.09 1221.31 1910.57 1221.31 1910.57 1324.63 1525.09 1324.63Z" fill="#FFFFFF" fill-rule="evenodd"/><path d="M1910.57 1221.31 2113.25 1221.31 2113.25 1324.63 1910.57 1324.63Z" fill="#FFFFFF" fill-rule="evenodd"/><path d="M2113.25 1221.31 2439.37 1221.31 2439.37 1324.63 2113.25 1324.63Z" fill="#FFFFFF" fill-rule="evenodd"/><path d="M2439.37 1221.31 2826.59 1221.31 2826.59 1324.63 2439.37 1324.63Z" fill="#FFFFFF" fill-rule="evenodd"/><path d="M1525.09 1324.63 1910.57 1324.63 1910.57 1427.94 1525.09 1427.94Z" fill="#FFFFFF" fill-rule="evenodd"/><path d="M1910.57 1324.63 2113.25 1324.63 2113.25 1427.94 1910.57 1427.94Z" fill="#FFFFFF" fill-rule="evenodd"/><path d="M2113.25 1324.63 2439.37 1324.63 2439.37 1427.94 2113.25 1427.94Z" fill="#FFFFFF" fill-rule="evenodd"/><path d="M2439.37 1324.63 2826.59 1324.63 2826.59 1427.94 2439.37 1427.94Z" fill="#FFFFFF" fill-rule="evenodd"/><path d="M1522.8 1117.99 2828.88 1117.99" stroke="#000000" stroke-width="4.58333" stroke-linejoin="round" stroke-miterlimit="10" fill="none" fill-rule="evenodd"/><path d="M1522.8 1221.31 2828.88 1221.31" stroke="#000000" stroke-width="4.58333" stroke-linejoin="round" stroke-miterlimit="10" fill="none" fill-rule="evenodd"/><path d="M1522.8 1324.63 2828.88 1324.63" stroke="#000000" stroke-width="4.58333" stroke-linejoin="round" stroke-miterlimit="10" fill="none" fill-rule="evenodd"/><path d="M1525.09 1012.38 1525.09 1430.24" stroke="#000000" stroke-width="4.58333" stroke-linejoin="round" stroke-miterlimit="10" fill="none" fill-rule="evenodd"/><path d="M2826.59 1012.38 2826.59 1430.24" stroke="#000000" stroke-width="4.58333" stroke-linejoin="round" stroke-miterlimit="10" fill="none" fill-rule="evenodd"/><path d="M1522.8 1014.67 2828.88 1014.67" stroke="#000000" stroke-width="4.58333" stroke-linejoin="round" stroke-miterlimit="10" fill="none" fill-rule="evenodd"/><path d="M1522.8 1427.94 2828.88 1427.94" stroke="#000000" stroke-width="4.58333" stroke-linejoin="round" stroke-miterlimit="10" fill="none" fill-rule="evenodd"/><path d="M2494.95 1034.67 2565.42 1034.67 2565.42 1096.67 2494.95 1096.67Z" fill-rule="evenodd"/><path d="M2565.42 1034.67 2582.61 1034.67 2582.61 1096.67 2565.42 1096.67Z" fill-rule="evenodd"/><path d="M2582.61 1034.67 2771.01 1034.67 2771.01 1096.67 2582.61 1096.67Z" fill-rule="evenodd"/><text fill="#FFFFFF" font-family="Aptos,Aptos_MSFontService,sans-serif" font-weight="400" font-size="50" transform="matrix(1 0 0 1 2494.95 1083)">P(F</text><text fill="#FFFFFF" font-family="Aptos,Aptos_MSFontService,sans-serif" font-weight="400" font-size="50" transform="matrix(1 0 0 1 2565.42 1083)">-</text><text fill="#FFFFFF" font-family="Aptos,Aptos_MSFontService,sans-serif" font-weight="400" font-size="50" transform="matrix(1 0 0 1 2582.61 1083)">statistic)</text><path d="M2167.79 1034.67 2194.14 1034.67 2194.14 1096.67 2167.79 1096.67Z" fill-rule="evenodd"/><path d="M2194.14 1034.67 2211.33 1034.67 2211.33 1096.67 2194.14 1096.67Z" fill-rule="evenodd"/><path d="M2211.33 1034.67 2384.83 1034.67 2384.83 1096.67 2211.33 1096.67Z" fill-rule="evenodd"/><text fill="#FFFFFF" font-family="Aptos,Aptos_MSFontService,sans-serif" font-weight="400" font-size="50" transform="matrix(1 0 0 1 2167.79 1083)">F</text><text fill="#FFFFFF" font-family="Aptos,Aptos_MSFontService,sans-serif" font-weight="400" font-size="50" transform="matrix(1 0 0 1 2194.14 1083)">-</text><text fill="#FFFFFF" font-family="Aptos,Aptos_MSFontService,sans-serif" font-weight="400" font-size="50" transform="matrix(1 0 0 1 2211.33 1083)">statistic</text><path d="M1987.85 1034.67 2018.21 1034.67 2018.21 1096.67 1987.85 1096.67Z" fill-rule="evenodd"/><path d="M2018.21 1034.66 2035.97 1034.66 2035.97 1096.66 2018.21 1096.66Z" fill-rule="evenodd"/><text fill="#FFFFFF" font-family="Aptos,Aptos_MSFontService,sans-serif" font-weight="400" font-size="50" transform="matrix(1 0 0 1 1987.85 1083)">R</text><text fill="#FFFFFF" font-family="Aptos,Aptos_MSFontService,sans-serif" font-weight="400" font-size="34" transform="matrix(1 0 0 1 2018.21 1068)">2</text><path d="M1649.94 1034.67 1785.72 1034.67 1785.72 1096.67 1649.94 1096.67Z" fill-rule="evenodd"/><text fill="#FFFFFF" font-family="Aptos,Aptos_MSFontService,sans-serif" font-weight="400" font-size="50" transform="matrix(1 0 0 1 1649.94 1083)">Model</text><text font-family="Aptos,Aptos_MSFontService,sans-serif" font-weight="400" font-size="50" transform="matrix(1 0 0 1 2522.41 1186)">1.32 x 10</text><text font-family="Aptos,Aptos_MSFontService,sans-serif" font-weight="400" font-size="34" transform="matrix(1 0 0 1 2714.33 1171)">-</text><text font-family="Aptos,Aptos_MSFontService,sans-serif" font-weight="400" font-size="34" transform="matrix(1 0 0 1 2725.79 1171)">6</text><text font-family="Aptos,Aptos_MSFontService,sans-serif" font-weight="400" font-size="50" transform="matrix(1 0 0 1 2215.29 1186)">14.38</text><text font-family="Aptos,Aptos_MSFontService,sans-serif" font-weight="400" font-size="50" transform="matrix(1 0 0 1 1950.9 1186)">0.112</text><text font-family="Aptos,Aptos_MSFontService,sans-serif" font-weight="700" font-size="50" transform="matrix(1 0 0 1 1702.08 1186)">A</text><text font-family="Aptos,Aptos_MSFontService,sans-serif" font-weight="400" font-size="50" transform="matrix(1 0 0 1 2523.04 1289)">5.99 x 10</text><text font-family="Aptos,Aptos_MSFontService,sans-serif" font-weight="400" font-size="34" transform="matrix(1 0 0 1 2714.96 1274)">-</text><text font-family="Aptos,Aptos_MSFontService,sans-serif" font-weight="400" font-size="34" transform="matrix(1 0 0 1 2725.16 1274)">7</text><text font-family="Aptos,Aptos_MSFontService,sans-serif" font-weight="400" font-size="50" transform="matrix(1 0 0 1 2215.29 1289)">15.27</text><text font-family="Aptos,Aptos_MSFontService,sans-serif" font-weight="400" font-size="50" transform="matrix(1 0 0 1 1950.9 1289)">0.119</text><text font-family="Aptos,Aptos_MSFontService,sans-serif" font-weight="700" font-size="50" transform="matrix(1 0 0 1 1702.36 1289)">B</text><text font-family="Aptos,Aptos_MSFontService,sans-serif" font-weight="400" font-size="50" transform="matrix(1 0 0 1 2522.41 1393)">1.81 x 10</text><text font-family="Aptos,Aptos_MSFontService,sans-serif" font-weight="400" font-size="34" transform="matrix(1 0 0 1 2714.33 1378)">-</text><text font-family="Aptos,Aptos_MSFontService,sans-serif" font-weight="400" font-size="34" transform="matrix(1 0 0 1 2725.79 1378)">5</text><text font-family="Aptos,Aptos_MSFontService,sans-serif" font-weight="400" font-size="50" transform="matrix(1 0 0 1 2215.29 1393)">11.45</text><text font-family="Aptos,Aptos_MSFontService,sans-serif" font-weight="400" font-size="50" transform="matrix(1 0 0 1 1950.9 1393)">0.091</text><text font-family="Aptos,Aptos_MSFontService,sans-serif" font-weight="700" font-size="50" transform="matrix(1 0 0 1 1700.07 1393)">C</text></g></svg>